<svg width="99" height="48" viewBox="0 0 99 48" fill="none" xmlns="http://www.w3.org/2000/svg">
<g filter="url(#filter0_d_15_112)">
<path d="M55.328 16V4.8H59.104C60.0747 4.8 60.9013 4.96 61.584 5.28C62.2667 5.59467 62.8187 6.02133 63.24 6.56C63.6667 7.09333 63.976 7.69333 64.168 8.36C64.3653 9.02133 64.464 9.70133 64.464 10.4C64.464 11.04 64.3707 11.688 64.184 12.344C64.0027 13 63.704 13.6053 63.288 14.16C62.872 14.7093 62.3147 15.1547 61.616 15.496C60.9227 15.832 60.064 16 59.04 16H55.328ZM57.4 14.032H59.256C59.8267 14.032 60.3067 13.9253 60.696 13.712C61.0853 13.4933 61.3973 13.208 61.632 12.856C61.872 12.4987 62.0453 12.1067 62.152 11.68C62.264 11.248 62.32 10.8213 62.32 10.4C62.32 9.952 62.264 9.512 62.152 9.08C62.04 8.648 61.8667 8.256 61.632 7.904C61.3973 7.552 61.0987 7.272 60.736 7.064C60.3733 6.856 59.9387 6.752 59.432 6.752H57.4V14.032ZM66.6249 16V4.8H74.1929V6.768H68.6969V9.232H71.9529V11.2H68.6969V14.016H74.5289V16H66.6249ZM76.5468 16V4.8H84.1148V6.768H78.6188V9.232H81.8748V11.2H78.6188V14.016H84.4508V16H76.5468ZM86.4686 16V4.8H91.1966C92.1406 4.8 92.89 4.97333 93.4446 5.32C93.9993 5.66133 94.3966 6.10133 94.6366 6.64C94.8766 7.17333 94.9966 7.73067 94.9966 8.312C94.9966 8.71733 94.9246 9.128 94.7806 9.544C94.642 9.95467 94.4206 10.3333 94.1166 10.68C93.818 11.0213 93.426 11.2987 92.9406 11.512C92.4606 11.72 91.8793 11.824 91.1966 11.824H88.5406V16H86.4686ZM88.5406 9.872H91.2926C91.6766 9.872 91.9833 9.79467 92.2126 9.64C92.4473 9.48 92.6153 9.28 92.7166 9.04C92.818 8.8 92.8686 8.55733 92.8686 8.312C92.8686 8.088 92.8206 7.856 92.7246 7.616C92.634 7.37067 92.474 7.16533 92.2446 7C92.0153 6.83467 91.698 6.752 91.2926 6.752H88.5406V9.872Z" fill="white"/>
<path d="M61.9746 30.6348C61.9746 31.5996 61.7988 32.4062 61.4473 33.0547C61.0957 33.6992 60.5859 34.1855 59.918 34.5137C59.2539 34.8379 58.4473 35 57.498 35H55.1719V26.4336H57.7559C58.627 26.4336 59.377 26.5938 60.0059 26.9141C60.6348 27.2305 61.1191 27.7012 61.459 28.3262C61.8027 28.9473 61.9746 29.7168 61.9746 30.6348ZM60.9258 30.6699C60.9258 29.9004 60.7969 29.2656 60.5391 28.7656C60.2852 28.2656 59.9102 27.8945 59.4141 27.6523C58.9219 27.4062 58.3184 27.2832 57.6035 27.2832H56.168V34.1445H57.3809C58.5605 34.1445 59.4453 33.8535 60.0352 33.2715C60.6289 32.6895 60.9258 31.8223 60.9258 30.6699ZM66.1348 28.4727C66.9004 28.4727 67.4688 28.6445 67.8398 28.9883C68.2109 29.332 68.3965 29.8809 68.3965 30.6348V35H67.6875L67.5 34.0508H67.4531C67.2734 34.2852 67.0859 34.4824 66.8906 34.6426C66.6953 34.7988 66.4688 34.918 66.2109 35C65.957 35.0781 65.6445 35.1172 65.2734 35.1172C64.8828 35.1172 64.5352 35.0488 64.2305 34.9121C63.9297 34.7754 63.6914 34.5684 63.5156 34.291C63.3438 34.0137 63.2578 33.6621 63.2578 33.2363C63.2578 32.5957 63.5117 32.1035 64.0195 31.7598C64.5273 31.416 65.3008 31.2285 66.3398 31.1973L67.4473 31.1504V30.7578C67.4473 30.2031 67.3281 29.8145 67.0898 29.5918C66.8516 29.3691 66.5156 29.2578 66.082 29.2578C65.7461 29.2578 65.4258 29.3066 65.1211 29.4043C64.8164 29.502 64.5273 29.6172 64.2539 29.75L63.9551 29.0117C64.2441 28.8633 64.5762 28.7363 64.9512 28.6309C65.3262 28.5254 65.7207 28.4727 66.1348 28.4727ZM67.4355 31.8359L66.457 31.877C65.6562 31.9082 65.0918 32.0391 64.7637 32.2695C64.4355 32.5 64.2715 32.8262 64.2715 33.248C64.2715 33.6152 64.3828 33.8867 64.6055 34.0625C64.8281 34.2383 65.123 34.3262 65.4902 34.3262C66.0605 34.3262 66.5273 34.168 66.8906 33.8516C67.2539 33.5352 67.4355 33.0605 67.4355 32.4277V31.8359ZM74.5547 33.2422C74.5547 33.6523 74.4512 33.998 74.2441 34.2793C74.041 34.5566 73.748 34.7656 73.3652 34.9062C72.9863 35.0469 72.5332 35.1172 72.0059 35.1172C71.5566 35.1172 71.168 35.082 70.8398 35.0117C70.5117 34.9414 70.2246 34.8418 69.9785 34.7129V33.8164C70.2402 33.9453 70.5527 34.0625 70.916 34.168C71.2793 34.2734 71.6504 34.3262 72.0293 34.3262C72.584 34.3262 72.9863 34.2363 73.2363 34.0566C73.4863 33.877 73.6113 33.6328 73.6113 33.3242C73.6113 33.1484 73.5605 32.9941 73.459 32.8613C73.3613 32.7246 73.1953 32.5938 72.9609 32.4688C72.7266 32.3398 72.4023 32.1992 71.9883 32.0469C71.5781 31.8906 71.2227 31.7363 70.9219 31.584C70.625 31.4277 70.3945 31.2383 70.2305 31.0156C70.0703 30.793 69.9902 30.5039 69.9902 30.1484C69.9902 29.6055 70.209 29.1895 70.6465 28.9004C71.0879 28.6074 71.666 28.4609 72.3809 28.4609C72.7676 28.4609 73.1289 28.5 73.4648 28.5781C73.8047 28.6523 74.1211 28.7539 74.4141 28.8828L74.0859 29.6621C73.8203 29.5488 73.5371 29.4531 73.2363 29.375C72.9355 29.2969 72.6289 29.2578 72.3164 29.2578C71.8672 29.2578 71.5215 29.332 71.2793 29.4805C71.041 29.6289 70.9219 29.832 70.9219 30.0898C70.9219 30.2891 70.9766 30.4531 71.0859 30.582C71.1992 30.7109 71.3789 30.832 71.625 30.9453C71.8711 31.0586 72.1953 31.1914 72.5977 31.3438C73 31.4922 73.3477 31.6465 73.6406 31.8066C73.9336 31.9629 74.1582 32.1543 74.3145 32.3809C74.4746 32.6035 74.5547 32.8906 74.5547 33.2422ZM77.0918 25.8828V28.6074C77.0918 28.7637 77.0879 28.9219 77.0801 29.082C77.0723 29.2383 77.0586 29.3828 77.0391 29.5156H77.1035C77.2363 29.2891 77.4043 29.0996 77.6074 28.9473C77.8145 28.791 78.0488 28.6738 78.3105 28.5957C78.5723 28.5137 78.8496 28.4727 79.1426 28.4727C79.6582 28.4727 80.0879 28.5547 80.4316 28.7188C80.7793 28.8828 81.0391 29.1367 81.2109 29.4805C81.3867 29.8242 81.4746 30.2695 81.4746 30.8164V35H80.5137V30.8809C80.5137 30.3457 80.3906 29.9453 80.1445 29.6797C79.9023 29.4141 79.5293 29.2812 79.0254 29.2812C78.5488 29.2812 78.168 29.373 77.8828 29.5566C77.6016 29.7363 77.3984 30.002 77.2734 30.3535C77.1523 30.7051 77.0918 31.1348 77.0918 31.6426V35H76.1191V25.8828H77.0918Z" fill="white"/>
<rect x="4" width="40" height="40" fill="white"/>
<path d="M14 10H23.5C28.7467 10 33 14.2533 33 19.5C33 24.7467 28.7467 29 23.5 29H14V10Z" fill="#6257FE"/>
</g>
<defs>
<filter id="filter0_d_15_112" x="0" y="0" width="98.9966" height="48" filterUnits="userSpaceOnUse" color-interpolation-filters="sRGB">
<feFlood flood-opacity="0" result="BackgroundImageFix"/>
<feColorMatrix in="SourceAlpha" type="matrix" values="0 0 0 0 0 0 0 0 0 0 0 0 0 0 0 0 0 0 127 0" result="hardAlpha"/>
<feOffset dy="4"/>
<feGaussianBlur stdDeviation="2"/>
<feComposite in2="hardAlpha" operator="out"/>
<feColorMatrix type="matrix" values="0 0 0 0 0 0 0 0 0 0 0 0 0 0 0 0 0 0 0.25 0"/>
<feBlend mode="normal" in2="BackgroundImageFix" result="effect1_dropShadow_15_112"/>
<feBlend mode="normal" in="SourceGraphic" in2="effect1_dropShadow_15_112" result="shape"/>
</filter>
</defs>
</svg>
